# xmcd
#
# Track frame offsets: 
#        150
#        16950
#        30975
#        52275
#        70125
#        89250
#        110175
#        128025
#        145050
#        161700
#        180600
#        196350
#
# Disc length: 2847 seconds
#
# Revision: 0
# Processed by: cddbd v1.5.2PL0 Copyright (c) Steve Scherf et al.
# Submitted via: ExactAudioCopy v0.99pb4
#
DISCID=a70b1d0c
DTITLE=EG Kight  -  Lip Service 
DYEAR=2011
DGENRE=Blues
TTITLE0=Sugar Daddies
TTITLE1=I'm In It To Win It
TTITLE2=That's How A Woman Loves
TTITLE3=Lip Service
TTITLE4=Savannah
TTITLE5=Koko's Song
TTITLE6=Somewhere Down Deep
TTITLE7=I Can't Turn Him Off
TTITLE8=It's Gonna Rain All Night
TTITLE9=Goodbye
TTITLE10=Married Man
TTITLE11=I'm Happy With The One I Got Now
EXTD=
EXTT0=
EXTT1=
EXTT2=
EXTT3=
EXTT4=
EXTT5=
EXTT6=
EXTT7=
EXTT8=
EXTT9=
EXTT10=
EXTT11=
PLAYORDER=
